<svg width="260" height="260" viewBox="0 0 260 260" xmlns="http://www.w3.org/2000/svg" role="img" aria-label="Cartoon mosquito shivering inside a frosty badge">
  <defs>
    <linearGradient id="sky" x1="0" y1="0" x2="0" y2="1">
      <stop offset="0%" stop-color="#f4fbff" />
      <stop offset="100%" stop-color="#d7f0ff" />
    </linearGradient>
  </defs>
  <circle cx="130" cy="130" r="118" fill="#0d4569" />
  <circle cx="130" cy="130" r="108" fill="url(#sky)" stroke="#4e97c0" stroke-width="10" />

  <!-- snow accents -->
  <g stroke="#5ba3c7" stroke-width="6" stroke-linecap="round" fill="none">
    <path d="M58 118 Q68 110 80 112" />
    <path d="M188 150 Q198 158 206 154" />
  </g>
  <g fill="#81b7d8">
    <circle cx="78" cy="168" r="5" />
    <circle cx="182" cy="102" r="5" />
    <circle cx="112" cy="84" r="4" />
  </g>

  <!-- mosquito -->
  <g transform="translate(70 70)">
    <!-- wings -->
    <path d="M92 52 C122 18 152 32 160 62 L115 74 Z" fill="#c7ecff" stroke="#0b2a3f" stroke-width="6" />
    <path d="M86 44 C110 10 140 6 150 34 L104 58 Z" fill="#dff5ff" stroke="#0b2a3f" stroke-width="6" />

    <!-- body -->
    <ellipse cx="64" cy="78" rx="42" ry="30" fill="#c15d33" stroke="#0b2a3f" stroke-width="8" />
    <path d="M64 108 C64 140 86 162 106 168 C98 154 96 134 96 108" fill="#c15d33" stroke="#0b2a3f" stroke-width="8" />
    <path d="M50 108 C48 138 24 160 6 170 C14 152 22 132 22 104" fill="#c15d33" stroke="#0b2a3f" stroke-width="8" />

    <!-- stripes -->
    <path d="M34 126 C22 130 18 144 18 154" stroke="#8a3412" stroke-width="8" />
    <path d="M96 126 C108 132 112 144 110 156" stroke="#8a3412" stroke-width="8" />

    <!-- head -->
    <ellipse cx="70" cy="50" rx="36" ry="28" fill="#c15d33" stroke="#0b2a3f" stroke-width="8" />
    <g fill="#fff" stroke="#0b2a3f" stroke-width="7">
      <circle cx="56" cy="44" r="16" />
      <circle cx="86" cy="44" r="16" />
    </g>
    <circle cx="60" cy="48" r="6" fill="#0b2a3f" />
    <circle cx="90" cy="48" r="6" fill="#0b2a3f" />
    <path d="M40 34 Q30 24 18 20" stroke="#0b2a3f" stroke-width="7" fill="none" />
    <path d="M98 34 Q108 24 120 20" stroke="#0b2a3f" stroke-width="7" fill="none" />

    <!-- proboscis -->
    <path d="M102 52 L170 34" stroke="#0b2a3f" stroke-width="8" stroke-linecap="round" />
    <path d="M170 34 L194 38" stroke="#c15d33" stroke-width="6" stroke-linecap="round" />

    <!-- arms -->
    <path d="M52 86 C34 88 22 102 20 118" stroke="#0b2a3f" stroke-width="8" fill="none" />
    <path d="M84 86 C102 88 116 100 120 118" stroke="#0b2a3f" stroke-width="8" fill="none" />

    <!-- legs -->
    <path d="M56 120 C48 140 40 164 44 188" stroke="#0b2a3f" stroke-width="8" fill="none" />
    <path d="M80 120 C90 140 98 164 94 188" stroke="#0b2a3f" stroke-width="8" fill="none" />
    <path d="M68 122 C70 148 70 170 70 194" stroke="#0b2a3f" stroke-width="8" fill="none" />
  </g>

  <!-- shiver accents -->
  <g stroke="#0b2a3f" stroke-width="4" stroke-linecap="round">
    <path d="M80 98 Q70 104 68 114" />
    <path d="M188 174 Q178 182 176 194" />
  </g>
</svg>
